<svg xmlns="http://www.w3.org/2000/svg" aria-hidden="true" style="position:absolute;width:0;height:0;overflow:hidden">
  <defs>
    <symbol id="icon-favicon" viewBox="0 0 32 32">
      <path fill="#f0f0f0" d="M4 0h24a4 4 0 0 1 4 4v24a4 4 0 0 1-4 4H4a4 4 0 0 1-4-4V4a4 4 0 0 1 4-4z" style="fill:var(--color1, #f0f0f0)"/>
      <path fill="#00b068" d="M3 9.5h2.579c1.665 0 2.789.075 3.373.225.589.15 1.037.396 1.343.739s.497.725.573 1.148c.076.418.115 1.242.115 2.473v4.553c0 1.167-.057 1.948-.172 2.345-.109.391-.303.699-.581.923a2.529 2.529 0 0 1-1.031.466c-.409.086-1.026.128-1.85.128H3.002v-13zm3.446 2.224v8.552c.497 0 .802-.096.917-.289.115-.198.172-.731.172-1.598v-5.051c0-.589-.019-.966-.057-1.132s-.126-.286-.262-.361c-.136-.08-.393-.12-.77-.12zM13.053 9.5H18.8v2.602h-2.3v2.465h2.153v2.473H16.5v2.859h2.53v2.602h-5.976v-13zM29 9.5l-1.752 13h-5.231l-1.989-13h3.635c.42 3.581.72 6.608.901 9.082.18-2.5.368-4.721.565-6.665l.237-2.417h3.635z" style="fill:var(--color2, #00b068)"/>
    </symbol>
  </defs>
</svg>
