<svg xmlns="http://www.w3.org/2000/svg" aria-hidden="true" style="position:absolute;width:0;height:0;overflow:hidden">
  <defs>
    <symbol id="icon-favicon-1" viewBox="0 0 32 32">
      <path fill="#f0f0f0" d="M4 0h24a4 4 0 0 1 4 4v24a4 4 0 0 1-4 4H4a4 4 0 0 1-4-4V4a4 4 0 0 1 4-4z" style="fill:var(--color1, #f0f0f0)"/>
      <path fill="#00b068" d="M3 9.5h2.6c1.6 0 2.8 0 3.4.2.5.2 1 .4 1.3.8s.5.7.6 1.1V21l-.7 1-1 .4-1.9.1H3v-13zm3.4 2.2v8.6c.5 0 .8-.1 1-.3l.1-1.6v-6.2c0-.2-.1-.3-.3-.4h-.8zM13 9.5h5.8v2.6h-2.3v2.5h2.2V17h-2.2V20H19v2.6h-6v-13zM29 9.5l-1.8 13H22l-2-13h3.7l.9 9L25 12l.3-2.4H29z" style="fill:var(--color2, #00b068)"/>
    </symbol>
  </defs>
</svg>
